<!--
  GENERATED by scripts/brand-assets.mjs — run `npm run brand:assets`. Do not
  hand-edit; edit the script.

  The No Filter mark as the favicon. docs/spec/50-brand-and-3d.md §1 and §4. Its
  geometry is the same four ratios as components/brand/ApertureMark.tsx, so the
  favicon and the on-page glyph cannot drift apart.

  Two differences from the component, both forced by the medium. The colours are
  literal, because a standalone SVG has nothing to inherit `currentColor` from.
  And it sits on a filled --black tile rather than on transparency: a white mark
  on a transparent ground disappears against a light browser tab and a black one
  disappears against a dark tab, so the tile is what makes it survive both.

  The mark occupies 48 of the 64-unit tile — a 12.5% safe area on each side,
  which keeps it clear of the rounding some platforms apply.
-->
<svg xmlns="http://www.w3.org/2000/svg" viewBox="0 0 64 64" width="64" height="64">
  <rect width="64" height="64" fill="#212121"/>
  <g transform="translate(8 8)">
    <g fill="none" stroke="#efefef">
      <circle cx="24" cy="24" r="22" stroke-width="4"/>
      <g stroke-width="2">
        <line x1="24" y1="4" x2="24" y2="7.6667" transform="rotate(0 24 24) rotate(8 24 4)"/>
        <line x1="24" y1="4" x2="24" y2="7.6667" transform="rotate(60 24 24) rotate(8 24 4)"/>
        <line x1="24" y1="4" x2="24" y2="7.6667" transform="rotate(120 24 24) rotate(8 24 4)"/>
        <line x1="24" y1="4" x2="24" y2="7.6667" transform="rotate(180 24 24) rotate(8 24 4)"/>
        <line x1="24" y1="4" x2="24" y2="7.6667" transform="rotate(240 24 24) rotate(8 24 4)"/>
        <line x1="24" y1="4" x2="24" y2="7.6667" transform="rotate(300 24 24) rotate(8 24 4)"/>
      </g>
    </g>
  </g>
</svg>
